# xmcd
#
# Track frame offsets:
#	150
#	16944
#	38518
#	57710
#	74622
#	89316
#	104448
#	124399
#	145456
#	162887
#	187096
#	207478
#
# Disc length: 3018 seconds
#
# Revision: 1
# Processed by: cddbd v1.5.2PL0 Copyright (c) Steve Scherf et al.
# Submitted via: EZCDAudioConverter 8.0.7.1
#
DISCID=b70bc80c
DTITLE=Turnpike Troubadours - Diamonds and Gasoline
DYEAR=2010
DGENRE=Country
TTITLE0=Every Girl
TTITLE1=7 and 7
TTITLE2=1968
TTITLE3=Down On Washington
TTITLE4=Kansas City Southern
TTITLE5=Whole Damn Town
TTITLE6=Leaving and Lonely
TTITLE7=The Funeral
TTITLE8=Diamonds and Gasoline
TTITLE9=Shreveport
TTITLE10=Evangeline
TTITLE11=Long Hot Summer Day
EXTD=
EXTT0=
EXTT1=
EXTT2=
EXTT3=
EXTT4=
EXTT5=
EXTT6=
EXTT7=
EXTT8=
EXTT9=
EXTT10=
EXTT11=
PLAYORDER=
